<svg width="200" height="65" viewBox="0 0 200 65" fill="none" xmlns="http://www.w3.org/2000/svg">
<g clip-path="url(#clip0)">
<path d="M2.6266 32.283L32.2731 2.53463L61.9195 32.283L32.2731 62.0315L2.6266 32.283ZM32.2731 0.102051L0.151855 32.3337L32.2226 64.5147L64.3438 32.283L32.2731 0.102051Z" fill="#A6A6A6"/>
<path d="M24.7374 13.8045L32.5152 5.99994L59.0303 32.6063L51.2526 40.4108L24.7374 13.8045ZM41.9091 49.7864L49.6869 41.9818L32.5657 24.8018L24.7374 32.5556L41.9091 49.7864ZM32.5152 59.1619L40.293 51.3574L32.5152 43.5529L24.7374 51.3574L32.5152 59.1619ZM21.6061 32.5556L30.9495 23.18L23.1717 15.3755L6 32.6063L23.1212 49.7864L30.899 41.9818L21.6061 32.5556Z" fill="#A6A6A6"/>
<path d="M83.7879 39.6305H84.697L87.9293 47.2323H86.7172L85.9596 45.3572H82.3737L81.6162 47.2323H80.4041L83.7879 39.6305ZM85.6061 44.445L84.1919 40.9481L82.7778 44.445H85.6061Z" fill="#A6A6A6"/>
<path d="M93.0806 47.2323H92.121V46.4721C92.02 46.7255 91.7675 46.9789 91.515 47.1309C91.212 47.2829 90.8584 47.3843 90.4544 47.3843C90.2019 47.3843 89.9493 47.3336 89.7473 47.2829C89.5453 47.2323 89.3433 47.0802 89.1413 46.9282C88.9897 46.7762 88.8382 46.5734 88.7372 46.32C88.6362 46.0666 88.5857 45.7626 88.5857 45.4585V42.1644H89.5453V45.1544C89.5453 45.4078 89.5958 45.6105 89.6463 45.7626C89.6968 45.9146 89.7978 46.0667 89.8988 46.168C89.9998 46.2694 90.1514 46.3707 90.2524 46.3707C90.4039 46.4214 90.5554 46.4214 90.7069 46.4214C90.9089 46.4214 91.111 46.3707 91.2625 46.32C91.414 46.2694 91.5655 46.168 91.717 46.016C91.8685 45.8639 91.919 45.7119 92.02 45.5092C92.0705 45.3065 92.121 45.0531 92.121 44.749V42.1644H93.0806V47.2323Z" fill="#A6A6A6"/>
<path d="M97.2224 43.4315C97.1214 43.2795 96.9699 43.1781 96.8183 43.0768C96.6668 42.9754 96.4648 42.9247 96.2123 42.9247C95.9598 42.9247 95.8082 42.9754 95.6062 43.0768C95.4547 43.1781 95.3537 43.3302 95.3537 43.4822C95.3537 43.6342 95.4042 43.7356 95.5052 43.837C95.6062 43.9383 95.7072 43.989 95.8587 44.0397C96.0103 44.0904 96.1113 44.141 96.2628 44.1917C96.4143 44.2424 96.5153 44.2424 96.6668 44.2424C96.8688 44.2931 97.0709 44.3437 97.2729 44.4451C97.4749 44.4958 97.6264 44.5971 97.7274 44.7492C97.8789 44.8505 97.98 45.0026 98.0305 45.1546C98.081 45.3067 98.1315 45.5094 98.1315 45.7628C98.1315 46.0668 98.081 46.2695 97.9294 46.4723C97.8284 46.675 97.6769 46.827 97.4749 46.979C97.2729 47.1311 97.0709 47.1818 96.8183 47.2831C96.5658 47.3338 96.3133 47.3845 96.0608 47.3845C95.6567 47.3845 95.2527 47.3338 94.9497 47.1818C94.6466 47.0297 94.3436 46.827 94.0911 46.4723L94.7981 45.8641C94.9497 46.0162 95.1517 46.1682 95.3032 46.2695C95.5052 46.3709 95.7072 46.4723 96.0103 46.4723C96.1113 46.4723 96.2628 46.4723 96.3638 46.4216C96.4648 46.4216 96.6163 46.3709 96.7173 46.3202C96.8183 46.2695 96.8688 46.2189 96.9699 46.1175C97.0204 46.0162 97.0709 45.9148 97.0709 45.8134C97.0709 45.6614 97.0204 45.56 96.9193 45.4587C96.8183 45.3573 96.7173 45.3066 96.6163 45.256C96.5153 45.2053 96.3638 45.1546 96.2123 45.1039C96.0608 45.0533 95.9597 45.0533 95.8587 45.0026C95.6567 44.9519 95.4547 44.9012 95.2527 44.8505C95.0507 44.7999 94.8992 44.6985 94.7476 44.5972C94.5961 44.4958 94.4951 44.3437 94.3941 44.1917C94.2931 44.0397 94.2426 43.837 94.2426 43.5836C94.2426 43.3302 94.2931 43.0768 94.3941 42.8741C94.4951 42.6714 94.6466 42.5193 94.8486 42.3673C95.0507 42.2153 95.2527 42.1646 95.4547 42.0632C95.7072 42.0125 95.9092 41.9619 96.1618 41.9619C96.5153 41.9619 96.8183 42.0125 97.1214 42.1646C97.4244 42.3166 97.6769 42.5193 97.8789 42.8234L97.2224 43.4315Z" fill="#A6A6A6"/>
<path d="M102.172 42.975H100.808V45.2556C100.808 45.4076 100.808 45.5597 100.808 45.661C100.808 45.8131 100.859 45.9144 100.909 46.0158C100.96 46.1171 101.01 46.2185 101.111 46.2692C101.212 46.3198 101.364 46.3705 101.515 46.3705C101.616 46.3705 101.768 46.3705 101.869 46.3198C101.97 46.3198 102.121 46.2692 102.222 46.2185V47.08C102.121 47.1307 101.97 47.1814 101.768 47.2321C101.566 47.2827 101.465 47.2827 101.364 47.2827C101.01 47.2827 100.707 47.2321 100.505 47.1307C100.303 47.0293 100.151 46.8773 100.05 46.7253C99.9494 46.5732 99.8989 46.3705 99.8989 46.1678C99.8989 45.9651 99.8484 45.7624 99.8484 45.5597V42.9244H98.7373V42.1642H99.8484V40.7452H100.808V42.1642H102.172V42.975Z" fill="#A6A6A6"/>
<path d="M103.283 42.1645H104.243V42.9247C104.293 42.7726 104.394 42.6713 104.495 42.5699C104.596 42.4686 104.697 42.3672 104.849 42.2658C105 42.1645 105.101 42.1138 105.303 42.0631C105.455 42.0125 105.606 42.0125 105.758 42.0125C105.909 42.0125 106.061 42.0125 106.162 42.0631L106.111 43.1274C106.01 43.1274 105.96 43.0767 105.859 43.0767C105.758 43.0767 105.707 43.0767 105.606 43.0767C105.152 43.0767 104.798 43.2287 104.546 43.4821C104.293 43.7355 104.192 44.141 104.192 44.6984V47.2324H103.283V42.1645Z" fill="#A6A6A6"/>
<path d="M107.172 42.7726C107.424 42.5192 107.778 42.3165 108.132 42.2152C108.485 42.1138 108.839 42.0125 109.192 42.0125C109.546 42.0125 109.899 42.0631 110.152 42.1645C110.404 42.2658 110.657 42.3672 110.808 42.5192C110.96 42.6713 111.111 42.874 111.212 43.0767C111.313 43.2794 111.313 43.4821 111.313 43.7355V46.3201C111.313 46.5229 111.313 46.6749 111.313 46.8269C111.313 46.979 111.313 47.131 111.364 47.2324H110.505C110.505 46.979 110.455 46.7256 110.455 46.4722C110.253 46.7762 110 47.0297 109.697 47.1817C109.394 47.3337 109.091 47.3844 108.687 47.3844C108.435 47.3844 108.233 47.3337 108.031 47.283C107.828 47.2324 107.626 47.131 107.475 46.979C107.323 46.8269 107.172 46.6749 107.071 46.5229C106.97 46.3201 106.919 46.1174 106.919 45.864C106.919 45.56 106.97 45.2559 107.121 45.0532C107.273 44.8505 107.475 44.6477 107.727 44.4957C107.98 44.3437 108.283 44.2423 108.637 44.1916C108.99 44.141 109.344 44.0903 109.697 44.0903H110.404V43.8876C110.404 43.7355 110.354 43.6342 110.354 43.4821C110.303 43.3301 110.253 43.2287 110.152 43.1274C110.051 43.026 109.95 42.9247 109.798 42.874C109.647 42.8233 109.495 42.7726 109.243 42.7726C109.041 42.7726 108.889 42.7726 108.738 42.8233C108.586 42.874 108.485 42.9247 108.384 42.9753C108.283 43.026 108.182 43.0767 108.081 43.1781C107.98 43.2287 107.879 43.3301 107.828 43.3808L107.172 42.7726ZM109.899 44.7998C109.647 44.7998 109.445 44.7998 109.192 44.8505C108.94 44.9011 108.738 44.9011 108.536 45.0025C108.334 45.0532 108.182 45.1545 108.031 45.3066C107.93 45.4586 107.828 45.6106 107.828 45.8134C107.828 46.1174 107.93 46.3202 108.132 46.4215C108.334 46.5735 108.586 46.6242 108.94 46.6242C109.192 46.6242 109.445 46.5735 109.596 46.4722C109.798 46.3708 109.95 46.2695 110.051 46.1174C110.152 45.9654 110.253 45.8134 110.303 45.6613C110.354 45.5093 110.354 45.3066 110.354 45.1545V44.8505H109.899V44.7998Z" fill="#A6A6A6"/>
<path d="M113.737 39.1241H112.778V47.2327H113.737V39.1241Z" fill="#A6A6A6"/>
<path d="M115.051 40.34C115.051 40.1373 115.101 39.9853 115.253 39.8332C115.404 39.6812 115.556 39.6305 115.758 39.6305C115.96 39.6305 116.111 39.6812 116.263 39.8332C116.414 39.9853 116.465 40.1373 116.465 40.34C116.465 40.5427 116.414 40.6948 116.263 40.8468C116.111 40.9988 115.96 41.0495 115.758 41.0495C115.556 41.0495 115.404 40.9988 115.253 40.8468C115.101 40.6948 115.051 40.5427 115.051 40.34ZM115.253 42.1644H116.212V47.2323H115.253V42.1644Z" fill="#A6A6A6"/>
<path d="M117.677 42.7726C117.929 42.5192 118.283 42.3165 118.636 42.2152C118.99 42.1138 119.343 42.0125 119.697 42.0125C120.051 42.0125 120.404 42.0631 120.657 42.1645C120.909 42.2658 121.162 42.3672 121.313 42.5192C121.465 42.6713 121.616 42.874 121.717 43.0767C121.818 43.2794 121.818 43.4821 121.818 43.7355V46.3201C121.818 46.5229 121.818 46.6749 121.818 46.8269C121.818 46.979 121.818 47.131 121.869 47.2324H121.01C121.01 46.979 120.96 46.7256 120.96 46.4722C120.758 46.7762 120.505 47.0297 120.202 47.1817C119.899 47.3337 119.596 47.3844 119.192 47.3844C118.939 47.3844 118.737 47.3337 118.535 47.283C118.333 47.2324 118.131 47.131 117.98 46.979C117.828 46.8269 117.677 46.6749 117.576 46.5229C117.475 46.3201 117.424 46.1174 117.424 45.864C117.424 45.56 117.475 45.2559 117.626 45.0532C117.778 44.8505 117.98 44.6477 118.232 44.4957C118.485 44.3437 118.788 44.2423 119.141 44.1916C119.495 44.141 119.849 44.0903 120.202 44.0903H120.909V43.8876C120.909 43.7355 120.859 43.6342 120.859 43.4821C120.808 43.3301 120.758 43.2287 120.657 43.1274C120.556 43.026 120.455 42.9247 120.303 42.874C120.152 42.8233 120 42.7726 119.747 42.7726C119.545 42.7726 119.394 42.7726 119.242 42.8233C119.091 42.874 118.99 42.9247 118.889 42.9753C118.788 43.026 118.687 43.0767 118.586 43.1781C118.485 43.2287 118.384 43.3301 118.333 43.3808L117.677 42.7726ZM120.404 44.7998C120.152 44.7998 119.95 44.7998 119.697 44.8505C119.444 44.9011 119.242 44.9011 119.04 45.0025C118.838 45.0532 118.687 45.1545 118.535 45.3066C118.434 45.4586 118.333 45.6106 118.333 45.8134C118.333 46.1174 118.434 46.3202 118.636 46.4215C118.838 46.5735 119.091 46.6242 119.444 46.6242C119.697 46.6242 119.95 46.5735 120.101 46.4722C120.303 46.3708 120.455 46.2695 120.556 46.1174C120.657 45.9654 120.758 45.8134 120.808 45.6613C120.859 45.5093 120.859 45.3066 120.859 45.1545V44.8505H120.404V44.7998Z" fill="#A6A6A6"/>
<path d="M123.232 42.1645H124.192V42.9247C124.293 42.6713 124.546 42.4179 124.798 42.2658C125.101 42.1138 125.455 42.0125 125.859 42.0125C126.111 42.0125 126.313 42.0631 126.566 42.1138C126.768 42.1645 126.97 42.3165 127.172 42.4686C127.323 42.6206 127.475 42.8233 127.576 43.0767C127.677 43.3301 127.727 43.6342 127.727 43.9382V47.1817H126.768V44.1916C126.768 43.9382 126.717 43.7355 126.667 43.5835C126.616 43.4315 126.515 43.2794 126.414 43.1781C126.313 43.0767 126.162 42.9753 126.061 42.9753C125.909 42.9247 125.758 42.9247 125.606 42.9247C125.404 42.9247 125.202 42.9753 125.051 43.026C124.899 43.0767 124.748 43.1781 124.596 43.3301C124.445 43.4821 124.344 43.6342 124.293 43.8369C124.243 44.0396 124.192 44.293 124.192 44.5971V47.2324H123.232V42.1645Z" fill="#A6A6A6"/>
<path d="M132.627 45.6614C132.829 45.9655 133.031 46.1682 133.334 46.2696C133.637 46.4216 133.94 46.4723 134.243 46.4723C134.394 46.4723 134.596 46.4216 134.748 46.3709C134.899 46.3203 135.101 46.2189 135.253 46.1175C135.404 46.0162 135.505 45.8641 135.606 45.7121C135.707 45.5601 135.758 45.3574 135.758 45.1546C135.758 44.8506 135.657 44.6479 135.505 44.4958C135.303 44.3438 135.101 44.1917 134.798 44.0904C134.546 43.989 134.243 43.8877 133.889 43.7863C133.586 43.685 133.283 43.5329 132.98 43.3809C132.728 43.2289 132.475 42.9754 132.273 42.6714C132.071 42.3673 131.97 42.0126 131.97 41.5058C131.97 41.3031 132.02 41.0497 132.121 40.7963C132.222 40.5429 132.374 40.3402 132.576 40.0868C132.778 39.8841 133.031 39.6813 133.384 39.58C133.687 39.4279 134.091 39.3773 134.546 39.3773C134.95 39.3773 135.354 39.4279 135.707 39.5293C136.061 39.6307 136.414 39.8841 136.717 40.2388L135.909 40.999C135.758 40.7963 135.606 40.6442 135.354 40.4922C135.101 40.3908 134.849 40.2895 134.546 40.2895C134.243 40.2895 134.041 40.3402 133.839 40.3908C133.637 40.4415 133.485 40.5429 133.384 40.6949C133.283 40.7963 133.182 40.9483 133.132 41.1003C133.081 41.2524 133.081 41.3537 133.081 41.4551C133.081 41.7592 133.182 42.0126 133.384 42.2153C133.586 42.3673 133.788 42.5194 134.091 42.6207C134.344 42.7221 134.647 42.8234 135 42.9248C135.303 43.0261 135.606 43.1275 135.909 43.2795C136.162 43.4316 136.414 43.6343 136.616 43.8877C136.818 44.1411 136.869 44.4958 136.869 44.9519C136.869 45.3067 136.818 45.6614 136.667 45.9148C136.515 46.2189 136.364 46.4723 136.111 46.675C135.859 46.8777 135.606 47.0298 135.303 47.1311C135 47.2325 134.647 47.2831 134.293 47.2831C133.788 47.2831 133.334 47.1818 132.93 47.0298C132.525 46.8777 132.172 46.5736 131.919 46.2189L132.627 45.6614Z" fill="#A6A6A6"/>
<path d="M138.788 45.0532C138.788 45.2559 138.838 45.4586 138.939 45.6613C139.04 45.864 139.141 46.0161 139.293 46.1174C139.445 46.2695 139.647 46.3708 139.849 46.4215C140.051 46.4722 140.253 46.5229 140.505 46.5229C140.808 46.5229 141.061 46.4722 141.263 46.3201C141.465 46.1681 141.667 46.0161 141.869 45.7627L142.576 46.3201C142.02 47.0296 141.313 47.3844 140.354 47.3844C139.95 47.3844 139.596 47.3337 139.293 47.1817C138.99 47.0297 138.687 46.8776 138.485 46.6242C138.283 46.3708 138.081 46.1174 137.98 45.7627C137.879 45.4586 137.778 45.1038 137.778 44.6984C137.778 44.3437 137.828 43.9889 137.98 43.6342C138.131 43.3301 138.283 43.026 138.535 42.7726C138.788 42.5192 139.04 42.3672 139.343 42.2152C139.647 42.0631 140 42.0125 140.404 42.0125C140.859 42.0125 141.212 42.1138 141.566 42.2658C141.869 42.4179 142.121 42.6206 142.323 42.874C142.525 43.1274 142.677 43.4315 142.778 43.7355C142.879 44.0396 142.929 44.3943 142.929 44.6984V45.0532H138.788ZM141.818 44.293C141.818 44.0903 141.768 43.8876 141.717 43.6848C141.667 43.4821 141.566 43.3301 141.465 43.2287C141.364 43.0767 141.212 42.9753 141.01 42.9247C140.808 42.874 140.606 42.8233 140.354 42.8233C140.101 42.8233 139.899 42.874 139.697 42.9753C139.495 43.0767 139.344 43.1781 139.192 43.3301C139.04 43.4821 138.939 43.6342 138.889 43.7862C138.838 43.9382 138.788 44.141 138.788 44.293H141.818Z" fill="#A6A6A6"/>
<path d="M147.626 43.482C147.424 43.2793 147.273 43.1779 147.071 43.0766C146.869 42.9752 146.667 42.9245 146.364 42.9245C146.111 42.9245 145.859 42.9752 145.656 43.0766C145.454 43.1779 145.303 43.33 145.151 43.482C145 43.634 144.899 43.8367 144.848 44.0395C144.798 44.2422 144.747 44.4956 144.747 44.6983C144.747 44.9517 144.798 45.1544 144.848 45.3571C144.949 45.5598 145.05 45.7625 145.202 45.9146C145.353 46.0666 145.505 46.2186 145.707 46.2693C145.909 46.3707 146.111 46.4214 146.364 46.4214C146.616 46.4214 146.869 46.3707 147.071 46.2693C147.273 46.168 147.424 46.0159 147.626 45.8639L148.333 46.5734C148.081 46.8775 147.778 47.0295 147.475 47.1815C147.121 47.2829 146.818 47.3843 146.414 47.3843C146.01 47.3843 145.656 47.3336 145.353 47.1815C145.05 47.0295 144.747 46.8775 144.495 46.6241C144.242 46.3707 144.091 46.1173 143.939 45.8132C143.788 45.5091 143.737 45.1544 143.737 44.749C143.737 44.3435 143.788 43.9888 143.939 43.6847C144.091 43.3806 144.242 43.0766 144.495 42.8232C144.747 42.5698 145 42.4177 145.303 42.2657C145.606 42.1137 146.01 42.063 146.364 42.063C146.717 42.063 147.071 42.1137 147.424 42.2657C147.778 42.4177 148.081 42.6205 148.283 42.8739L147.626 43.482Z" fill="#A6A6A6"/>
<path d="M153.738 47.2323H152.778V46.4721C152.677 46.7255 152.425 46.9789 152.172 47.1309C151.869 47.2829 151.515 47.3843 151.162 47.3843C150.909 47.3843 150.657 47.3336 150.455 47.2829C150.253 47.2323 150.051 47.0802 149.849 46.9282C149.697 46.7762 149.546 46.5734 149.445 46.32C149.344 46.0666 149.293 45.7626 149.293 45.4585V42.1644H150.253V45.1544C150.253 45.4078 150.303 45.6105 150.354 45.7626C150.404 45.9146 150.505 46.0667 150.606 46.168C150.707 46.2694 150.859 46.3707 150.96 46.3707C151.111 46.4214 151.263 46.4214 151.414 46.4214C151.616 46.4214 151.818 46.3707 151.97 46.32C152.121 46.2694 152.273 46.168 152.425 46.016C152.576 45.8639 152.677 45.7119 152.728 45.5092C152.778 45.3065 152.829 45.0531 152.829 44.749V42.1644H153.788V47.2323H153.738Z" fill="#A6A6A6"/>
<path d="M155.202 42.1645H156.161V42.9247C156.212 42.7726 156.313 42.6713 156.414 42.5699C156.515 42.4686 156.616 42.3672 156.768 42.2658C156.919 42.1645 157.02 42.1138 157.222 42.0631C157.374 42.0125 157.525 42.0125 157.677 42.0125C157.828 42.0125 157.98 42.0125 158.081 42.0631L158.03 43.1274C157.929 43.1274 157.879 43.0767 157.778 43.0767C157.677 43.0767 157.626 43.0767 157.525 43.0767C157.071 43.0767 156.717 43.2287 156.464 43.4821C156.212 43.7355 156.111 44.141 156.111 44.6984V47.2324H155.151L155.202 42.1645Z" fill="#A6A6A6"/>
<path d="M158.889 40.34C158.889 40.1373 158.94 39.9853 159.091 39.8332C159.243 39.6812 159.394 39.6305 159.596 39.6305C159.798 39.6305 159.95 39.6812 160.101 39.8332C160.253 39.9853 160.303 40.1373 160.303 40.34C160.303 40.5427 160.253 40.6948 160.101 40.8468C159.95 40.9988 159.798 41.0495 159.596 41.0495C159.394 41.0495 159.243 40.9988 159.091 40.8468C158.94 40.6948 158.889 40.5427 158.889 40.34ZM159.091 42.1644H160.051V47.2323H159.091V42.1644Z" fill="#A6A6A6"/>
<path d="M164.394 42.975H163.03V45.2556C163.03 45.4076 163.03 45.5597 163.03 45.661C163.03 45.8131 163.081 45.9144 163.131 46.0158C163.182 46.1171 163.232 46.2185 163.333 46.2692C163.434 46.3198 163.586 46.3705 163.737 46.3705C163.838 46.3705 163.99 46.3705 164.091 46.3198C164.192 46.3198 164.343 46.2692 164.444 46.2185V47.08C164.343 47.1307 164.192 47.1814 163.99 47.2321C163.788 47.2827 163.687 47.2827 163.586 47.2827C163.232 47.2827 162.929 47.2321 162.727 47.1307C162.525 47.0293 162.374 46.8773 162.273 46.7253C162.172 46.5732 162.121 46.3705 162.121 46.1678C162.121 45.9651 162.071 45.7624 162.071 45.5597V42.9244H160.959V42.1642H162.071V40.7452H163.03V42.1642H164.394V42.975Z" fill="#A6A6A6"/>
<path d="M165.303 40.34C165.303 40.1373 165.354 39.9853 165.505 39.8332C165.657 39.6812 165.808 39.6305 166.01 39.6305C166.212 39.6305 166.364 39.6812 166.515 39.8332C166.667 39.9853 166.717 40.1373 166.717 40.34C166.717 40.5427 166.667 40.6948 166.515 40.8468C166.364 40.9988 166.212 41.0495 166.01 41.0495C165.808 41.0495 165.657 40.9988 165.505 40.8468C165.354 40.6948 165.303 40.5427 165.303 40.34ZM165.505 42.1644H166.465V47.2323H165.505V42.1644Z" fill="#A6A6A6"/>
<path d="M168.687 45.0532C168.687 45.2559 168.738 45.4586 168.839 45.6613C168.94 45.864 169.041 46.0161 169.243 46.1174C169.394 46.2695 169.596 46.3708 169.798 46.4215C170 46.4722 170.202 46.5229 170.455 46.5229C170.758 46.5229 171.01 46.4722 171.212 46.3201C171.414 46.1681 171.616 46.0161 171.818 45.7627L172.526 46.3201C171.97 47.0296 171.263 47.3844 170.303 47.3844C169.899 47.3844 169.546 47.3337 169.243 47.1817C168.94 47.0297 168.637 46.8776 168.435 46.6242C168.233 46.3708 168.031 46.1174 167.93 45.7627C167.829 45.4586 167.728 45.1038 167.728 44.6984C167.728 44.3437 167.778 43.9889 167.93 43.6342C168.081 43.3301 168.233 43.026 168.485 42.7726C168.738 42.5192 168.99 42.3672 169.293 42.2152C169.596 42.0631 169.95 42.0125 170.354 42.0125C170.808 42.0125 171.162 42.1138 171.515 42.2658C171.869 42.4179 172.071 42.6206 172.273 42.874C172.475 43.1274 172.627 43.4315 172.728 43.7355C172.829 44.0396 172.879 44.3943 172.879 44.6984V45.0532H168.687ZM171.717 44.293C171.717 44.0903 171.667 43.8876 171.616 43.6848C171.566 43.4821 171.465 43.3301 171.364 43.2287C171.263 43.0767 171.111 42.9753 170.909 42.9247C170.707 42.874 170.505 42.8233 170.253 42.8233C170 42.8233 169.798 42.874 169.596 42.9753C169.394 43.0767 169.243 43.1781 169.091 43.3301C168.94 43.4821 168.839 43.6342 168.788 43.7862C168.738 43.9382 168.687 44.141 168.687 44.293H171.717Z" fill="#A6A6A6"/>
<path d="M176.616 43.4315C176.515 43.2795 176.363 43.1781 176.212 43.0768C176.06 42.9754 175.858 42.9247 175.606 42.9247C175.353 42.9247 175.202 42.9754 175 43.0768C174.848 43.1781 174.747 43.3302 174.747 43.4822C174.747 43.6342 174.798 43.7356 174.899 43.837C175 43.9383 175.101 43.989 175.252 44.0397C175.404 44.0904 175.505 44.141 175.656 44.1917C175.808 44.2424 175.959 44.2424 176.06 44.2424C176.262 44.2931 176.464 44.3437 176.666 44.4451C176.868 44.4958 177.02 44.5971 177.121 44.7492C177.273 44.8505 177.374 45.0026 177.424 45.1546C177.475 45.3067 177.525 45.5094 177.525 45.7628C177.525 46.0668 177.475 46.2695 177.323 46.4723C177.222 46.675 177.07 46.827 176.868 46.979C176.666 47.1311 176.464 47.1818 176.212 47.2831C175.959 47.3338 175.707 47.3845 175.454 47.3845C175.05 47.3845 174.646 47.3338 174.343 47.1818C174.04 47.0297 173.737 46.827 173.485 46.4723L174.192 45.8641C174.343 46.0162 174.545 46.1682 174.697 46.2695C174.899 46.3709 175.101 46.4723 175.404 46.4723C175.505 46.4723 175.656 46.4723 175.757 46.4216C175.858 46.4216 176.01 46.3709 176.111 46.3202C176.212 46.2695 176.262 46.2189 176.363 46.1175C176.414 46.0162 176.464 45.9148 176.464 45.8134C176.464 45.6614 176.414 45.56 176.313 45.4587C176.212 45.3573 176.111 45.3066 176.01 45.256C175.909 45.2053 175.757 45.1546 175.606 45.1039C175.454 45.0533 175.353 45.0533 175.252 45.0026C175.05 44.9519 174.848 44.9012 174.646 44.8505C174.444 44.7999 174.293 44.6985 174.141 44.5972C173.99 44.4958 173.889 44.3437 173.788 44.1917C173.687 44.0397 173.636 43.837 173.636 43.5836C173.636 43.3302 173.687 43.0768 173.788 42.8741C173.889 42.6714 174.04 42.5193 174.242 42.3673C174.444 42.2153 174.646 42.1646 174.848 42.0632C175.101 42.0125 175.303 41.9619 175.555 41.9619C175.909 41.9619 176.212 42.0125 176.515 42.1646C176.818 42.3166 177.07 42.5193 177.273 42.8234L176.616 43.4315Z" fill="#A6A6A6"/>
<path d="M188.485 47.2323H187.121L186.212 46.2187C185.909 46.6241 185.555 46.8776 185.202 47.1309C184.848 47.3337 184.394 47.435 183.889 47.435C183.485 47.435 183.081 47.3843 182.778 47.2323C182.475 47.1309 182.222 46.9282 182.02 46.7255C181.818 46.5228 181.667 46.2694 181.566 46.016C181.465 45.7626 181.414 45.5092 181.414 45.2051C181.414 44.9518 181.465 44.6984 181.566 44.4956C181.667 44.2929 181.768 44.0902 181.919 43.8875C182.071 43.6848 182.273 43.5328 182.475 43.3807C182.677 43.2287 182.879 43.1273 183.131 43.026C182.879 42.7726 182.677 42.5192 182.525 42.2151C182.374 41.9617 182.273 41.607 182.273 41.2522C182.273 40.9481 182.323 40.6947 182.424 40.492C182.525 40.2893 182.677 40.0866 182.879 39.9346C183.081 39.7825 183.283 39.6812 183.535 39.5798C183.788 39.4785 184.04 39.4785 184.293 39.4785C184.545 39.4785 184.798 39.5291 185.05 39.5798C185.303 39.6305 185.505 39.7825 185.656 39.8839C185.859 40.0359 185.96 40.188 186.061 40.4413C186.162 40.6441 186.212 40.8975 186.212 41.2015C186.212 41.4549 186.162 41.6576 186.061 41.8604C185.96 42.0631 185.859 42.2151 185.707 42.4178C185.555 42.5699 185.404 42.7219 185.202 42.8233C185 42.9246 184.848 43.0766 184.646 43.178L186.162 44.749L187.121 43.178H188.283L186.818 45.4585L188.485 47.2323ZM183.737 43.6341C183.586 43.7355 183.434 43.8368 183.283 43.9382C183.131 44.0395 182.98 44.1409 182.879 44.2929C182.778 44.3943 182.677 44.5463 182.576 44.6984C182.525 44.8504 182.475 45.0024 182.475 45.2051C182.475 45.4079 182.525 45.5599 182.576 45.7119C182.677 45.864 182.778 46.016 182.879 46.1174C183.03 46.2187 183.182 46.3201 183.333 46.4214C183.485 46.4721 183.687 46.5228 183.838 46.5228C184.04 46.5228 184.192 46.4721 184.343 46.4214C184.495 46.3708 184.646 46.2694 184.798 46.2187C184.949 46.1174 185.05 46.016 185.202 45.9147C185.303 45.8133 185.404 45.6613 185.505 45.5599L183.737 43.6341ZM185.151 41.2522C185.151 40.9988 185.05 40.7961 184.899 40.6441C184.747 40.492 184.495 40.4413 184.242 40.4413C183.99 40.4413 183.737 40.492 183.535 40.6947C183.333 40.8468 183.232 41.0495 183.232 41.3536C183.232 41.5056 183.232 41.607 183.283 41.7083C183.333 41.8097 183.384 41.911 183.485 42.0631C183.535 42.1644 183.636 42.2658 183.737 42.3671C183.838 42.4685 183.889 42.5699 183.99 42.6205C184.141 42.5699 184.242 42.4685 184.394 42.3671C184.545 42.2658 184.646 42.1644 184.798 42.0631C184.949 41.9617 185 41.8604 185.101 41.7083C185.151 41.5563 185.151 41.4042 185.151 41.2522Z" fill="#A6A6A6"/>
<path d="M82.4242 51.338H81.4141V58.9398H82.4242V51.338Z" fill="#A6A6A6"/>
<path d="M84.0911 53.8205H85.0507V54.5807C85.1517 54.3273 85.4042 54.0739 85.6567 53.9219C85.9598 53.7699 86.3133 53.6685 86.6668 53.6685C86.9193 53.6685 87.1214 53.7192 87.3739 53.7699C87.5759 53.8206 87.7779 53.9726 87.98 54.1246C88.1315 54.2767 88.283 54.4794 88.384 54.7328C88.485 54.9862 88.5355 55.2902 88.5355 55.5943V58.8378H87.6264V55.8477C87.6264 55.5943 87.5759 55.3916 87.5254 55.2396C87.4749 55.0875 87.3739 54.9355 87.2729 54.8341C87.1719 54.7328 87.0204 54.6314 86.9193 54.6314C86.7678 54.5807 86.6163 54.5807 86.4648 54.5807C86.2628 54.5807 86.0608 54.6314 85.9092 54.6821C85.7577 54.7328 85.6062 54.8341 85.4547 54.9862C85.3032 55.1382 85.2022 55.2902 85.1517 55.493C85.1012 55.6957 85.0507 55.9491 85.0507 56.2531V58.8884H84.0911V53.8205Z" fill="#A6A6A6"/>
<path d="M89.2424 53.8206H90.3535L91.8687 57.7229L93.2828 53.8206H94.3434L92.3232 58.8885H91.3131L89.2424 53.8206Z" fill="#A6A6A6"/>
<path d="M95.7579 56.7093C95.7579 56.912 95.8084 57.1148 95.9094 57.3175C96.0104 57.5202 96.1114 57.6722 96.263 57.7736C96.4145 57.9256 96.6165 58.027 96.8185 58.0777C97.0205 58.1283 97.2226 58.179 97.4751 58.179C97.7781 58.179 98.0306 58.1283 98.2327 57.9763C98.4347 57.8243 98.6367 57.6722 98.8387 57.4188L99.5458 57.9763C98.9902 58.6858 98.2832 58.9899 97.3236 58.9899C96.9195 58.9899 96.566 58.9392 96.263 58.7872C95.9599 58.6351 95.6569 58.4831 95.4549 58.2297C95.2529 57.9763 95.0508 57.7229 94.9498 57.3681C94.8488 57.0641 94.7478 56.7093 94.7478 56.3039C94.7478 55.9492 94.7983 55.5944 94.9498 55.2396C95.1013 54.9356 95.2529 54.6315 95.5054 54.3781C95.7579 54.1247 96.0104 53.9727 96.3135 53.8206C96.6165 53.6686 96.97 53.6179 97.3741 53.6179C97.8286 53.6179 98.1822 53.7193 98.5357 53.8713C98.8387 54.0234 99.0912 54.2261 99.2933 54.4795C99.4953 54.7329 99.6468 55.0369 99.7478 55.341C99.8488 55.6451 99.8993 55.9998 99.8993 56.3039V56.6586L95.7579 56.7093ZM98.7882 55.9491C98.7882 55.7464 98.7377 55.5437 98.6872 55.341C98.6367 55.1383 98.5357 54.9862 98.4347 54.8849C98.3337 54.7329 98.1821 54.6315 97.9801 54.5808C97.7781 54.5301 97.5761 54.4795 97.3236 54.4795C97.071 54.4795 96.869 54.5301 96.667 54.6315C96.465 54.7329 96.3135 54.8342 96.1619 54.9863C96.0104 55.1383 95.9094 55.2903 95.8589 55.4424C95.8084 55.5944 95.7579 55.7971 95.7579 55.9491H98.7882Z" fill="#A6A6A6"/>
<path d="M103.636 55.0876C103.535 54.9356 103.384 54.8342 103.232 54.7329C103.081 54.6315 102.879 54.5808 102.626 54.5808C102.424 54.5808 102.222 54.6315 102.02 54.7329C101.869 54.8342 101.768 54.9862 101.768 55.1383C101.768 55.2903 101.818 55.3917 101.919 55.493C102.02 55.5944 102.121 55.6451 102.273 55.6958C102.424 55.7464 102.525 55.7971 102.677 55.8478C102.828 55.8985 102.98 55.8985 103.081 55.8985C103.283 55.9491 103.485 55.9998 103.687 56.1012C103.889 56.1519 104.04 56.2532 104.141 56.4053C104.293 56.5066 104.394 56.6587 104.444 56.8107C104.495 56.9627 104.545 57.1654 104.545 57.4188C104.545 57.7229 104.495 57.9256 104.343 58.1283C104.242 58.331 104.091 58.4831 103.889 58.6351C103.687 58.7871 103.485 58.8378 103.232 58.9392C102.98 58.9899 102.727 59.0406 102.475 59.0406C102.071 59.0406 101.667 58.9899 101.363 58.8378C101.06 58.6858 100.757 58.4831 100.505 58.1283L101.212 57.5202C101.363 57.6722 101.566 57.8243 101.717 57.9256C101.919 58.027 102.121 58.1283 102.424 58.1283C102.525 58.1283 102.677 58.1283 102.778 58.0777C102.879 58.027 103.03 58.027 103.131 57.9763C103.232 57.9256 103.283 57.8749 103.384 57.7736C103.434 57.6722 103.485 57.6215 103.485 57.4695C103.485 57.3175 103.434 57.2161 103.333 57.1147C103.232 57.0134 103.131 56.9627 103.03 56.912C102.929 56.8614 102.778 56.8107 102.626 56.76C102.475 56.7093 102.374 56.7093 102.273 56.6586C102.071 56.608 101.869 56.5573 101.667 56.5066C101.464 56.4559 101.313 56.3546 101.161 56.2532C101.01 56.1519 100.909 55.9998 100.808 55.8478C100.707 55.6957 100.656 55.493 100.656 55.2396C100.656 54.9863 100.707 54.7329 100.808 54.5301C100.909 54.3274 101.06 54.1754 101.262 54.0234C101.465 53.8713 101.667 53.8206 101.869 53.7193C102.121 53.6686 102.323 53.6179 102.576 53.6179C102.929 53.6179 103.232 53.6686 103.535 53.8206C103.838 53.9727 104.091 54.1754 104.293 54.4795L103.636 55.0876Z" fill="#A6A6A6"/>
<path d="M108.586 54.6311H107.222V56.9117C107.222 57.0637 107.222 57.2157 107.222 57.3171C107.222 57.4691 107.273 57.5705 107.323 57.6718C107.374 57.7732 107.424 57.8746 107.525 57.9252C107.626 57.9759 107.778 58.0266 107.929 58.0266C108.03 58.0266 108.182 58.0266 108.283 57.9759C108.384 57.9759 108.535 57.9252 108.636 57.8746V58.7361C108.535 58.7868 108.384 58.8375 108.182 58.8881C107.98 58.9388 107.879 58.9388 107.778 58.9388C107.424 58.9388 107.121 58.8881 106.919 58.7868C106.717 58.6854 106.566 58.5334 106.464 58.3813C106.363 58.2293 106.313 58.0266 106.313 57.8239C106.313 57.6212 106.262 57.4184 106.262 57.2157V54.5804H105.151V53.8202H106.262V52.4012H107.222V53.8202H108.586V54.6311Z" fill="#A6A6A6"/>
<path d="M109.697 53.8206H110.606V54.6314C110.606 54.5808 110.656 54.4794 110.757 54.3781C110.858 54.2767 110.959 54.1753 111.111 54.074C111.262 53.9726 111.414 53.9219 111.616 53.8206C111.818 53.7699 112.02 53.7192 112.222 53.7192C112.576 53.7192 112.929 53.8206 113.182 53.9726C113.434 54.1247 113.636 54.3781 113.788 54.6821C113.939 54.3781 114.192 54.1247 114.495 53.9726C114.798 53.8206 115.101 53.7192 115.404 53.7192C115.808 53.7192 116.111 53.7699 116.364 53.922C116.616 54.074 116.818 54.226 116.97 54.4287C117.121 54.6315 117.222 54.8848 117.273 55.1382C117.323 55.3916 117.374 55.6957 117.374 55.9491V58.8885H116.414V56.0505C116.414 55.8477 116.414 55.6957 116.364 55.493C116.313 55.2903 116.263 55.1382 116.212 55.0369C116.111 54.8849 116.01 54.7835 115.858 54.7328C115.707 54.6315 115.505 54.6314 115.303 54.6314C114.848 54.6314 114.495 54.7835 114.293 55.0369C114.091 55.341 113.99 55.6957 113.99 56.1518V58.9391H113.03V56.3039C113.03 56.0505 113.03 55.8477 112.98 55.645C112.929 55.4423 112.929 55.2903 112.828 55.1382C112.778 54.9862 112.626 54.8849 112.525 54.7835C112.374 54.6821 112.222 54.6821 111.97 54.6821C111.818 54.6821 111.616 54.7328 111.464 54.7835C111.313 54.8342 111.161 54.9355 111.06 55.0876C110.959 55.2396 110.858 55.3916 110.757 55.5943C110.707 55.7971 110.656 56.0505 110.656 56.3545V58.9898H109.697V53.8206Z" fill="#A6A6A6"/>
<path d="M119.495 56.7093C119.495 56.912 119.545 57.1148 119.646 57.3175C119.747 57.5202 119.848 57.6722 120.05 57.7736C120.202 57.9256 120.404 58.027 120.606 58.0777C120.808 58.1283 121.01 58.179 121.262 58.179C121.566 58.179 121.818 58.1283 122.02 57.9763C122.222 57.8243 122.424 57.6722 122.626 57.4188L123.333 57.9763C122.778 58.6858 122.071 58.9899 121.111 58.9899C120.707 58.9899 120.353 58.9392 120.05 58.7872C119.747 58.6351 119.444 58.4831 119.242 58.2297C119.04 57.9763 118.838 57.7229 118.737 57.3681C118.636 57.0641 118.535 56.7093 118.535 56.3039C118.535 55.9492 118.586 55.5944 118.737 55.2396C118.889 54.9356 119.04 54.6315 119.293 54.3781C119.545 54.1247 119.798 53.9727 120.101 53.8206C120.404 53.6686 120.757 53.6179 121.161 53.6179C121.616 53.6179 121.97 53.7193 122.323 53.8713C122.626 54.0234 122.879 54.2261 123.081 54.4795C123.283 54.7329 123.434 55.0369 123.535 55.341C123.636 55.6451 123.687 55.9998 123.687 56.3039V56.6586L119.495 56.7093ZM122.525 55.9491C122.525 55.7464 122.475 55.5437 122.424 55.341C122.374 55.1383 122.273 54.9862 122.172 54.8849C122.071 54.7329 121.919 54.6315 121.717 54.5808C121.515 54.5301 121.313 54.4795 121.06 54.4795C120.808 54.4795 120.606 54.5301 120.404 54.6315C120.202 54.7329 120.05 54.8342 119.899 54.9863C119.747 55.1383 119.646 55.2903 119.596 55.4424C119.545 55.5944 119.495 55.7971 119.495 55.9491H122.525Z" fill="#A6A6A6"/>
<path d="M124.747 53.8205H125.707V54.5807C125.808 54.3273 126.06 54.0739 126.313 53.9219C126.616 53.7699 126.97 53.6685 127.374 53.6685C127.626 53.6685 127.828 53.7192 128.081 53.7699C128.283 53.8206 128.485 53.9726 128.687 54.1246C128.838 54.2767 128.99 54.4794 129.091 54.7328C129.192 54.9862 129.242 55.2902 129.242 55.5943V58.8378H128.283V55.8477C128.283 55.5943 128.232 55.3916 128.182 55.2396C128.131 55.0875 128.03 54.9355 127.929 54.8341C127.828 54.7328 127.677 54.6314 127.576 54.6314C127.424 54.5807 127.273 54.5807 127.121 54.5807C126.919 54.5807 126.717 54.6314 126.566 54.6821C126.414 54.7328 126.263 54.8341 126.111 54.9862C125.959 55.1382 125.858 55.2902 125.808 55.493C125.757 55.6957 125.707 55.9491 125.707 56.2531V58.8884H124.747V53.8205Z" fill="#A6A6A6"/>
<path d="M133.434 54.6311H132.071V56.9117C132.071 57.0637 132.071 57.2157 132.071 57.3171C132.071 57.4691 132.121 57.5705 132.172 57.6718C132.222 57.7732 132.273 57.8746 132.374 57.9252C132.475 57.9759 132.626 58.0266 132.778 58.0266C132.879 58.0266 133.03 58.0266 133.131 57.9759C133.232 57.9759 133.384 57.9252 133.485 57.8746V58.7361C133.384 58.7868 133.232 58.8375 133.03 58.8881C132.828 58.9388 132.727 58.9388 132.626 58.9388C132.273 58.9388 131.97 58.8881 131.768 58.7868C131.566 58.6854 131.414 58.5334 131.313 58.3813C131.212 58.2293 131.162 58.0266 131.162 57.8239C131.162 57.6212 131.111 57.4184 131.111 57.2157V54.5804H130V53.8202H131.111V52.4012H132.071V53.8202H133.434V54.6311Z" fill="#A6A6A6"/>
<path d="M137.424 55.0876C137.323 54.9356 137.172 54.8342 137.02 54.7329C136.868 54.6315 136.666 54.5808 136.414 54.5808C136.161 54.5808 136.01 54.6315 135.808 54.7329C135.656 54.8342 135.555 54.9862 135.555 55.1383C135.555 55.2903 135.606 55.3917 135.707 55.493C135.808 55.5944 135.909 55.6451 136.06 55.6958C136.212 55.7464 136.313 55.7971 136.464 55.8478C136.616 55.8985 136.717 55.8985 136.869 55.8985C137.071 55.9491 137.273 55.9998 137.475 56.1012C137.677 56.1519 137.828 56.2532 137.929 56.4053C138.081 56.5066 138.182 56.6587 138.232 56.8107C138.283 56.9627 138.333 57.1654 138.333 57.4188C138.333 57.7229 138.283 57.9256 138.131 58.1283C138.03 58.331 137.879 58.4831 137.677 58.6351C137.475 58.7871 137.273 58.8378 137.02 58.9392C136.767 58.9899 136.515 59.0406 136.262 59.0406C135.858 59.0406 135.454 58.9899 135.151 58.8378C134.848 58.6858 134.545 58.4831 134.293 58.1283L135 57.5202C135.151 57.6722 135.353 57.8243 135.505 57.9256C135.707 58.027 135.909 58.1283 136.212 58.1283C136.313 58.1283 136.464 58.1283 136.565 58.0777C136.666 58.027 136.818 58.027 136.919 57.9763C137.02 57.9256 137.071 57.8749 137.172 57.7736C137.222 57.6722 137.273 57.6215 137.273 57.4695C137.273 57.3175 137.222 57.2161 137.121 57.1147C137.02 57.0134 136.919 56.9627 136.818 56.912C136.717 56.8614 136.565 56.8107 136.414 56.76C136.262 56.7093 136.161 56.7093 136.06 56.6586C135.858 56.608 135.656 56.5573 135.454 56.5066C135.252 56.4559 135.101 56.3546 134.949 56.2532C134.798 56.1519 134.697 55.9998 134.596 55.8478C134.495 55.6957 134.444 55.493 134.444 55.2396C134.444 54.9863 134.495 54.7329 134.596 54.5301C134.697 54.3274 134.848 54.1754 135.05 54.0234C135.252 53.8713 135.454 53.8206 135.656 53.7193C135.909 53.6686 136.111 53.6179 136.363 53.6179C136.717 53.6179 137.02 53.6686 137.323 53.8206C137.626 53.9727 137.879 54.1754 138.081 54.4795L137.424 55.0876Z" fill="#A6A6A6"/>
<path d="M147.98 52.959C147.778 52.7056 147.474 52.4522 147.171 52.3002C146.868 52.1481 146.515 52.0975 146.161 52.0975C145.757 52.0975 145.353 52.1988 145 52.3508C144.646 52.5029 144.343 52.7563 144.091 53.0097C143.838 53.2631 143.636 53.6178 143.535 53.9726C143.384 54.3273 143.333 54.7327 143.333 55.1889C143.333 55.5943 143.384 55.949 143.535 56.3038C143.687 56.6585 143.838 56.9626 144.091 57.2667C144.343 57.5201 144.646 57.7735 145 57.9255C145.353 58.0775 145.757 58.1789 146.161 58.1789C146.616 58.1789 146.969 58.0775 147.323 57.9255C147.626 57.7228 147.929 57.5201 148.131 57.1653L148.99 57.8242C148.939 57.9255 148.838 58.0269 148.687 58.1789C148.535 58.3309 148.333 58.483 148.131 58.635C147.879 58.787 147.626 58.8884 147.272 59.0404C146.919 59.1418 146.565 59.1925 146.111 59.1925C145.505 59.1925 145 59.0911 144.495 58.8377C143.99 58.635 143.586 58.3309 143.283 57.9255C142.929 57.5707 142.677 57.1146 142.525 56.6585C142.373 56.2024 142.272 55.6956 142.272 55.2395C142.272 54.6314 142.373 54.1246 142.575 53.6178C142.778 53.111 143.03 52.7056 143.384 52.3508C143.737 51.9961 144.141 51.692 144.646 51.4893C145.151 51.2866 145.656 51.1852 146.262 51.1852C146.767 51.1852 147.272 51.2866 147.727 51.4893C148.232 51.692 148.586 51.9961 148.889 52.4015L147.98 52.959Z" fill="#A6A6A6"/>
<path d="M149.646 56.3545C149.646 55.9998 149.697 55.645 149.849 55.341C150 55.0369 150.202 54.7328 150.404 54.4794C150.657 54.226 150.909 54.0233 151.263 53.922C151.566 53.7699 151.919 53.7192 152.323 53.7192C152.677 53.7192 153.03 53.7699 153.384 53.922C153.687 54.074 153.99 54.2767 154.242 54.4794C154.495 54.7328 154.697 54.9862 154.798 55.341C154.95 55.645 155 55.9998 155 56.3545C155 56.7093 154.95 57.064 154.798 57.4188C154.646 57.7735 154.444 58.0269 154.242 58.2803C153.99 58.5337 153.737 58.6858 153.384 58.8378C153.081 58.9898 152.727 59.0405 152.323 59.0405C151.97 59.0405 151.616 58.9898 151.263 58.8378C150.96 58.6858 150.657 58.5337 150.404 58.2803C150.152 58.0269 149.95 57.7735 149.849 57.4188C149.748 57.064 149.646 56.7093 149.646 56.3545ZM150.707 56.3545C150.707 56.6079 150.758 56.8613 150.808 57.064C150.909 57.2668 151.01 57.4695 151.162 57.6215C151.313 57.7735 151.465 57.8749 151.667 57.9763C151.869 58.0776 152.121 58.1283 152.374 58.1283C152.626 58.1283 152.879 58.0776 153.081 57.9763C153.283 57.8749 153.485 57.7735 153.586 57.6215C153.737 57.4695 153.838 57.2668 153.939 57.064C154.04 56.8613 154.04 56.6079 154.04 56.3545C154.04 56.1011 153.99 55.8477 153.939 55.645C153.838 55.4423 153.737 55.2396 153.586 55.0876C153.434 54.9355 153.283 54.8342 153.081 54.7328C152.879 54.6315 152.626 54.5808 152.374 54.5808C152.121 54.5808 151.869 54.6315 151.667 54.7328C151.465 54.8342 151.263 54.9355 151.162 55.0876C151.01 55.2396 150.909 55.4423 150.808 55.645C150.758 55.8477 150.707 56.1011 150.707 56.3545Z" fill="#A6A6A6"/>
<path d="M156.263 53.8206H157.172V54.6314C157.172 54.5808 157.273 54.4794 157.323 54.3781C157.424 54.2767 157.525 54.1753 157.677 54.074C157.828 53.9726 157.98 53.9219 158.182 53.8206C158.384 53.7699 158.586 53.7192 158.788 53.7192C159.141 53.7192 159.495 53.8206 159.748 53.9726C160 54.1247 160.202 54.3781 160.354 54.6821C160.505 54.3781 160.758 54.1247 161.061 53.9726C161.364 53.8206 161.667 53.7192 161.97 53.7192C162.374 53.7192 162.677 53.7699 162.929 53.922C163.182 54.074 163.384 54.226 163.535 54.4287C163.687 54.6315 163.788 54.8848 163.838 55.1382C163.889 55.3916 163.939 55.6957 163.939 55.9491V58.8885H162.98V56.0505C162.98 55.8477 162.98 55.6957 162.929 55.493C162.929 55.2903 162.879 55.1382 162.778 55.0369C162.677 54.8849 162.576 54.7835 162.424 54.7328C162.273 54.6315 162.071 54.6314 161.869 54.6314C161.414 54.6314 161.061 54.7835 160.859 55.0369C160.657 55.341 160.556 55.6957 160.556 56.1518V58.9391H159.596V56.3039C159.596 56.0505 159.596 55.8477 159.546 55.645C159.495 55.4423 159.495 55.2903 159.394 55.1382C159.344 54.9862 159.192 54.8849 159.091 54.7835C158.939 54.6821 158.788 54.6821 158.535 54.6821C158.384 54.6821 158.182 54.7328 158.03 54.7835C157.879 54.8342 157.727 54.9355 157.626 55.0876C157.525 55.2396 157.424 55.3916 157.323 55.5943C157.273 55.7971 157.222 56.0505 157.222 56.3545V58.9898H156.263V53.8206Z" fill="#A6A6A6"/>
<path d="M165.353 53.8206H166.262V54.6314C166.262 54.5808 166.313 54.4794 166.414 54.3781C166.515 54.2767 166.616 54.1753 166.767 54.074C166.919 53.9726 167.07 53.9219 167.272 53.8206C167.474 53.7699 167.676 53.7192 167.879 53.7192C168.232 53.7192 168.586 53.8206 168.838 53.9726C169.091 54.1247 169.293 54.3781 169.444 54.6821C169.596 54.3781 169.848 54.1247 170.151 53.9726C170.454 53.8206 170.757 53.7192 171.06 53.7192C171.464 53.7192 171.767 53.7699 172.02 53.922C172.272 54.074 172.474 54.226 172.626 54.4287C172.777 54.6315 172.879 54.8848 172.929 55.1382C172.98 55.3916 173.03 55.6957 173.03 55.9491V58.8885H172.07V56.0505C172.07 55.8477 172.07 55.6957 172.02 55.493C172.02 55.2903 171.969 55.1382 171.868 55.0369C171.767 54.8849 171.666 54.7835 171.515 54.7328C171.363 54.6315 171.161 54.6314 170.959 54.6314C170.505 54.6314 170.151 54.7835 169.949 55.0369C169.747 55.341 169.646 55.6957 169.646 56.1518V58.9391H168.687V56.3039C168.687 56.0505 168.687 55.8477 168.636 55.645C168.636 55.4423 168.586 55.2903 168.485 55.1382C168.434 54.9862 168.283 54.8849 168.182 54.7835C168.03 54.6821 167.879 54.6821 167.626 54.6821C167.474 54.6821 167.272 54.7328 167.121 54.7835C166.969 54.8342 166.818 54.9355 166.717 55.0876C166.616 55.2396 166.515 55.3916 166.414 55.5943C166.363 55.7971 166.313 56.0505 166.313 56.3545V58.9898H165.353V53.8206Z" fill="#A6A6A6"/>
<path d="M174.242 51.9961C174.242 51.7934 174.293 51.6413 174.444 51.4893C174.596 51.3373 174.747 51.2866 174.95 51.2866C175.152 51.2866 175.303 51.3373 175.455 51.4893C175.606 51.6413 175.657 51.7934 175.657 51.9961C175.657 52.1988 175.606 52.3508 175.455 52.5029C175.303 52.6549 175.152 52.7056 174.95 52.7056C174.747 52.7056 174.596 52.6549 174.444 52.5029C174.343 52.3508 174.242 52.1988 174.242 51.9961ZM174.495 53.8205H175.455V58.8884H174.495V53.8205Z" fill="#A6A6A6"/>
<path d="M179.647 55.0876C179.546 54.9356 179.394 54.8342 179.243 54.7329C179.091 54.6315 178.889 54.5808 178.637 54.5808C178.435 54.5808 178.233 54.6315 178.031 54.7329C177.879 54.8342 177.778 54.9862 177.778 55.1383C177.778 55.2903 177.829 55.3917 177.93 55.493C178.031 55.5944 178.132 55.6451 178.283 55.6958C178.435 55.7464 178.536 55.7971 178.687 55.8478C178.839 55.8985 178.99 55.8985 179.091 55.8985C179.293 55.9491 179.495 55.9998 179.697 56.1012C179.899 56.1519 180.051 56.2532 180.152 56.4053C180.303 56.5066 180.404 56.6587 180.455 56.8107C180.505 56.9627 180.556 57.1654 180.556 57.4188C180.556 57.7229 180.505 57.9256 180.354 58.1283C180.253 58.331 180.101 58.4831 179.899 58.6351C179.697 58.7871 179.495 58.8378 179.243 58.9392C178.99 58.9899 178.738 59.0406 178.485 59.0406C178.081 59.0406 177.677 58.9899 177.374 58.8378C177.071 58.6858 176.768 58.4831 176.515 58.1283L177.222 57.5202C177.374 57.6722 177.576 57.8243 177.727 57.9256C177.93 58.027 178.132 58.1283 178.435 58.1283C178.536 58.1283 178.687 58.1283 178.788 58.0777C178.889 58.027 179.041 58.027 179.142 57.9763C179.243 57.9256 179.293 57.8749 179.394 57.7736C179.445 57.6722 179.495 57.6215 179.495 57.4695C179.495 57.3175 179.445 57.2161 179.344 57.1147C179.243 57.0134 179.142 56.9627 179.041 56.912C178.94 56.8614 178.788 56.8107 178.637 56.76C178.485 56.7093 178.384 56.7093 178.283 56.6586C178.081 56.608 177.879 56.5573 177.677 56.5066C177.475 56.4559 177.323 56.3546 177.172 56.2532C177.02 56.1519 176.919 55.9998 176.818 55.8478C176.717 55.6957 176.667 55.493 176.667 55.2396C176.667 54.9863 176.717 54.7329 176.818 54.5301C176.919 54.3274 177.071 54.1754 177.273 54.0234C177.475 53.8713 177.677 53.8206 177.879 53.7193C178.132 53.6686 178.334 53.6179 178.586 53.6179C178.94 53.6179 179.243 53.6686 179.546 53.8206C179.849 53.9727 180.101 54.1754 180.303 54.4795L179.647 55.0876Z" fill="#A6A6A6"/>
<path d="M184.444 55.0876C184.343 54.9356 184.192 54.8342 184.04 54.7329C183.889 54.6315 183.687 54.5808 183.434 54.5808C183.182 54.5808 183.03 54.6315 182.828 54.7329C182.677 54.8342 182.576 54.9862 182.576 55.1383C182.576 55.2903 182.626 55.3917 182.727 55.493C182.828 55.5944 182.929 55.6451 183.081 55.6958C183.232 55.7464 183.333 55.7971 183.485 55.8478C183.636 55.8985 183.788 55.8985 183.889 55.8985C184.091 55.9491 184.293 55.9998 184.495 56.1012C184.697 56.1519 184.848 56.2532 184.949 56.4053C185.101 56.5066 185.202 56.6587 185.252 56.8107C185.303 56.9627 185.353 57.1654 185.353 57.4188C185.353 57.7229 185.303 57.9256 185.151 58.1283C185.05 58.331 184.899 58.4831 184.697 58.6351C184.495 58.7871 184.293 58.8378 184.04 58.9392C183.788 58.9899 183.535 59.0406 183.283 59.0406C182.879 59.0406 182.475 58.9899 182.172 58.8378C181.869 58.6858 181.566 58.4831 181.313 58.1283L182.02 57.5202C182.172 57.6722 182.374 57.8243 182.525 57.9256C182.727 58.027 182.929 58.1283 183.232 58.1283C183.333 58.1283 183.485 58.1283 183.586 58.0777C183.687 58.027 183.838 58.027 183.939 57.9763C184.04 57.9256 184.091 57.8749 184.192 57.7736C184.242 57.6722 184.293 57.6215 184.293 57.4695C184.293 57.3175 184.242 57.2161 184.141 57.1147C184.04 57.0134 183.939 56.9627 183.838 56.912C183.737 56.8614 183.586 56.8107 183.434 56.76C183.283 56.7093 183.182 56.7093 183.081 56.6586C182.879 56.608 182.677 56.5573 182.475 56.5066C182.273 56.4559 182.121 56.3546 181.97 56.2532C181.818 56.1519 181.717 55.9998 181.616 55.8478C181.515 55.6957 181.464 55.493 181.464 55.2396C181.464 54.9863 181.515 54.7329 181.616 54.5301C181.717 54.3274 181.869 54.1754 182.071 54.0234C182.273 53.8713 182.475 53.8206 182.677 53.7193C182.929 53.6686 183.131 53.6179 183.384 53.6179C183.737 53.6179 184.04 53.6686 184.343 53.8206C184.646 53.9727 184.899 54.1754 185.101 54.4795L184.444 55.0876Z" fill="#A6A6A6"/>
<path d="M186.263 51.9961C186.263 51.7934 186.313 51.6413 186.465 51.4893C186.616 51.3373 186.768 51.2866 186.97 51.2866C187.172 51.2866 187.323 51.3373 187.475 51.4893C187.626 51.6413 187.677 51.7934 187.677 51.9961C187.677 52.1988 187.626 52.3508 187.475 52.5029C187.323 52.6549 187.172 52.7056 186.97 52.7056C186.768 52.7056 186.616 52.6549 186.465 52.5029C186.364 52.3508 186.263 52.1988 186.263 51.9961ZM186.515 53.8205H187.475V58.8884H186.515V53.8205Z" fill="#A6A6A6"/>
<path d="M188.687 56.3545C188.687 55.9998 188.738 55.645 188.889 55.341C189.041 55.0369 189.243 54.7328 189.445 54.4794C189.697 54.226 189.95 54.0233 190.303 53.922C190.606 53.7699 190.96 53.7192 191.364 53.7192C191.717 53.7192 192.071 53.7699 192.424 53.922C192.727 54.074 193.03 54.2767 193.283 54.4794C193.536 54.7328 193.738 54.9862 193.839 55.341C193.99 55.645 194.041 55.9998 194.041 56.3545C194.041 56.7093 193.99 57.064 193.839 57.4188C193.687 57.7229 193.485 58.0269 193.283 58.2803C193.03 58.5337 192.778 58.6858 192.424 58.8378C192.121 58.9898 191.768 59.0405 191.364 59.0405C191.01 59.0405 190.657 58.9898 190.303 58.8378C190 58.6858 189.697 58.5337 189.445 58.2803C189.192 58.0269 188.99 57.7735 188.889 57.4188C188.738 57.064 188.687 56.7093 188.687 56.3545ZM189.697 56.3545C189.697 56.6079 189.748 56.8613 189.798 57.064C189.899 57.2668 190 57.4695 190.152 57.6215C190.303 57.7735 190.455 57.8749 190.657 57.9763C190.859 58.0776 191.111 58.1283 191.364 58.1283C191.616 58.1283 191.869 58.0776 192.071 57.9763C192.273 57.8749 192.475 57.7735 192.576 57.6215C192.727 57.4695 192.828 57.2668 192.929 57.064C193.03 56.8613 193.03 56.6079 193.03 56.3545C193.03 56.1011 192.98 55.8477 192.929 55.645C192.828 55.4423 192.727 55.2396 192.576 55.0876C192.424 54.9355 192.273 54.8342 192.071 54.7328C191.869 54.6315 191.616 54.5808 191.364 54.5808C191.111 54.5808 190.859 54.6315 190.657 54.7328C190.455 54.8342 190.253 54.9355 190.152 55.0876C190 55.2396 189.899 55.4423 189.798 55.645C189.748 55.8477 189.697 56.1011 189.697 56.3545Z" fill="#A6A6A6"/>
<path d="M195.252 53.8205H196.212V54.5807C196.313 54.3273 196.566 54.0739 196.818 53.9219C197.121 53.7699 197.475 53.6685 197.828 53.6685C198.081 53.6685 198.283 53.7192 198.535 53.7699C198.737 53.8206 198.939 53.9726 199.141 54.1246C199.293 54.2767 199.444 54.4794 199.545 54.7328C199.646 54.9862 199.697 55.2902 199.697 55.5943V58.8378H198.737V55.8477C198.737 55.5943 198.687 55.3916 198.636 55.2396C198.586 55.0875 198.485 54.9355 198.384 54.8341C198.283 54.7328 198.131 54.6314 198.03 54.6314C197.879 54.5807 197.727 54.5807 197.576 54.5807C197.374 54.5807 197.172 54.6314 197.02 54.6821C196.869 54.7328 196.717 54.8341 196.566 54.9862C196.414 55.1382 196.313 55.2902 196.263 55.493C196.212 55.6957 196.162 55.9491 196.162 56.2531V58.8884H195.202V53.8205H195.252Z" fill="#A6A6A6"/>
<path d="M91.8687 5.67615H96.7172L108.232 32.2825H101.667L99.394 26.6571H89.091L86.8687 32.2825H80.4546L91.8687 5.67615ZM94.1415 13.43L90.9091 21.6906H97.3738L94.1415 13.43Z" fill="#A6A6A6"/>
<path d="M124.04 12.2134C123.585 11.6053 122.929 11.1492 122.121 10.8958C121.313 10.5917 120.555 10.4397 119.798 10.4397C119.394 10.4397 118.939 10.4904 118.484 10.5917C118.03 10.6931 117.626 10.8451 117.222 11.0478C116.818 11.2505 116.515 11.5546 116.262 11.9094C116.01 12.2641 115.909 12.6695 115.909 13.1763C115.909 13.9872 116.212 14.5953 116.818 15.0008C117.424 15.4062 118.181 15.8116 119.091 16.065C120 16.3691 120.959 16.6732 122.02 16.9772C123.08 17.2813 124.04 17.6867 124.949 18.2442C125.858 18.8017 126.616 19.5112 127.222 20.4741C127.828 21.3863 128.131 22.6532 128.131 24.1736C128.131 25.6433 127.878 26.9609 127.323 28.0252C126.767 29.1401 126.01 30.0523 125.101 30.7618C124.141 31.4713 123.08 32.0288 121.868 32.3836C120.656 32.7383 119.343 32.8904 117.979 32.8904C116.262 32.8904 114.646 32.637 113.181 32.0795C111.717 31.5727 110.353 30.7112 109.04 29.5456L113.181 24.9845C113.788 25.7953 114.545 26.4035 115.454 26.8596C116.363 27.3157 117.323 27.5184 118.282 27.5184C118.737 27.5184 119.242 27.4677 119.747 27.3664C120.252 27.265 120.656 27.0623 121.06 26.8596C121.464 26.6569 121.767 26.3528 122.02 25.998C122.272 25.6433 122.373 25.2379 122.373 24.7818C122.373 23.9709 122.07 23.3627 121.464 22.9066C120.858 22.4505 120.101 22.0451 119.141 21.741C118.232 21.437 117.222 21.0822 116.161 20.7781C115.101 20.4741 114.091 20.018 113.181 19.4605C112.272 18.903 111.515 18.1935 110.858 17.2813C110.252 16.3691 109.949 15.2035 109.949 13.7338C109.949 12.3148 110.252 11.0478 110.808 9.98357C111.363 8.91932 112.121 8.0071 113.03 7.2976C113.99 6.58809 115.05 6.03063 116.262 5.67588C117.474 5.32113 118.737 5.11841 120.05 5.11841C121.565 5.11841 122.979 5.32112 124.394 5.77723C125.808 6.18266 127.07 6.89216 128.181 7.90574L124.04 12.2134Z" fill="#A6A6A6"/>
<path d="M137.626 5.67615H131.768V32.2825H137.626V5.67615Z" fill="#A6A6A6"/>
<path d="M159.848 12.6189C159.293 11.9094 158.586 11.4026 157.727 10.9971C156.869 10.6424 155.909 10.4397 154.848 10.4397C153.737 10.4397 152.727 10.6424 151.818 11.0985C150.859 11.5039 150.051 12.1121 149.394 12.8723C148.687 13.6324 148.182 14.5447 147.778 15.6089C147.374 16.6732 147.222 17.7881 147.222 19.0044C147.222 20.2714 147.424 21.3863 147.778 22.4505C148.182 23.5148 148.687 24.3763 149.394 25.1365C150.051 25.8967 150.859 26.5048 151.768 26.9103C152.677 27.3157 153.636 27.5691 154.697 27.5691C155.909 27.5691 156.97 27.3157 157.879 26.8089C158.788 26.3021 159.545 25.5926 160.152 24.7311L165 28.38C163.889 29.951 162.475 31.1166 160.758 31.8768C159.04 32.637 157.273 32.9917 155.455 32.9917C153.384 32.9917 151.465 32.6876 149.747 32.0288C147.98 31.37 146.515 30.4578 145.202 29.2415C143.939 28.0252 142.929 26.5555 142.222 24.8324C141.515 23.1094 141.162 21.1836 141.162 19.0551C141.162 16.9266 141.515 15.0008 142.222 13.2777C142.929 11.5546 143.939 10.0849 145.202 8.86864C146.465 7.65235 147.98 6.74013 149.747 6.08131C151.515 5.42249 153.384 5.11841 155.455 5.11841C156.212 5.11841 156.97 5.16909 157.778 5.32113C158.586 5.47316 159.394 5.67587 160.152 5.97995C160.96 6.28402 161.717 6.68945 162.424 7.19624C163.131 7.70303 163.788 8.31117 164.394 9.02067L159.848 12.6189Z" fill="#A6A6A6"/>
</g>
<defs>
<clipPath id="clip0">
<rect width="200" height="64.6154" fill="white"/>
</clipPath>
</defs>
</svg>
