<?xml version="1.0" encoding="utf-8"?>
<!-- Generator: Adobe Illustrator 19.0.0, SVG Export Plug-In . SVG Version: 6.00 Build 0)  -->
<svg version="1.1" id="Layer_1" xmlns="http://www.w3.org/2000/svg" xmlns:xlink="http://www.w3.org/1999/xlink" x="0px" y="0px"
	 viewBox="0 0 18 24" style="enable-background:new 0 0 18 24;" xml:space="preserve">
<style type="text/css">
	.st0{fill:none;stroke:#59595C;stroke-linecap:round;stroke-linejoin:round;stroke-miterlimit:10;}
</style>
<g>
	<g>
		<polygon class="st0" points="14,17.5 14,20 11.5,20 9,23 6.5,20 4,20 4,17.5 1,15 4,12.5 4,10 6.5,10 9,7 11.5,10 14,10 14,12.5 
			17,15 		"/>
	</g>
	<polyline class="st0" points="5,1 5,5 9,7 13,5 13,1 	"/>
	<line class="st0" x1="2" y1="1" x2="16" y2="1"/>
	<line class="st0" x1="7" y1="1" x2="7" y2="6"/>
	<line class="st0" x1="11" y1="1" x2="11" y2="6"/>
	<polygon class="st0" points="12,16.8 9,18.5 6,16.8 6,13.2 9,11.5 12,13.2 	"/>
</g>
</svg>
